<mxfile host="app.diagrams.net" modified="2023-11-05T22:49:55.714Z" agent="Mozilla/5.0 (Windows NT 10.0; Win64; x64) AppleWebKit/537.36 (KHTML, like Gecko) Chrome/119.0.0.0 Safari/537.36" etag="uy99S8XH4SCdI1g6Ojtd" version="22.0.8" type="github">
  <diagram name="Page-1" id="-bD9WmfOeyug8CpIs4vH">
    <mxGraphModel dx="1410" dy="640" grid="1" gridSize="10" guides="1" tooltips="1" connect="1" arrows="1" fold="1" page="1" pageScale="1" pageWidth="850" pageHeight="1100" background="#ffffff" math="0" shadow="0">
      <root>
        <mxCell id="0" />
        <mxCell id="1" parent="0" />
        <mxCell id="CPpi-T0CUva5ExN3Evoc-3" value="&lt;font style=&quot;font-size: 18px;&quot;&gt;Zastávka&lt;/font&gt;" style="swimlane;fontStyle=0;childLayout=stackLayout;horizontal=1;startSize=30;horizontalStack=0;resizeParent=1;resizeParentMax=0;resizeLast=0;collapsible=1;marginBottom=0;whiteSpace=wrap;html=1;" parent="1" vertex="1">
          <mxGeometry x="630" y="40" width="140" height="120" as="geometry" />
        </mxCell>
        <mxCell id="J_cl9QAVBTpifiWZS7fb-1" value="&lt;font style=&quot;font-size: 14px;&quot;&gt;&amp;nbsp;číslo &amp;lt;&amp;lt;PK&amp;gt;&lt;/font&gt;" style="text;html=1;strokeColor=none;fillColor=none;align=left;verticalAlign=middle;whiteSpace=wrap;rounded=0;" parent="CPpi-T0CUva5ExN3Evoc-3" vertex="1">
          <mxGeometry y="30" width="140" height="30" as="geometry" />
        </mxCell>
        <mxCell id="CPpi-T0CUva5ExN3Evoc-5" value="&lt;font style=&quot;font-size: 14px;&quot;&gt;Jméno&lt;/font&gt;" style="text;strokeColor=none;fillColor=none;align=left;verticalAlign=middle;spacingLeft=4;spacingRight=4;overflow=hidden;points=[[0,0.5],[1,0.5]];portConstraint=eastwest;rotatable=0;whiteSpace=wrap;html=1;" parent="CPpi-T0CUva5ExN3Evoc-3" vertex="1">
          <mxGeometry y="60" width="140" height="30" as="geometry" />
        </mxCell>
        <mxCell id="CPpi-T0CUva5ExN3Evoc-6" value="&lt;font style=&quot;font-size: 14px;&quot;&gt;GPS pozice&lt;/font&gt;" style="text;strokeColor=none;fillColor=none;align=left;verticalAlign=middle;spacingLeft=4;spacingRight=4;overflow=hidden;points=[[0,0.5],[1,0.5]];portConstraint=eastwest;rotatable=0;whiteSpace=wrap;html=1;" parent="CPpi-T0CUva5ExN3Evoc-3" vertex="1">
          <mxGeometry y="90" width="140" height="30" as="geometry" />
        </mxCell>
        <mxCell id="CPpi-T0CUva5ExN3Evoc-7" value="&lt;font style=&quot;font-size: 18px;&quot;&gt;Linka&lt;/font&gt;" style="swimlane;fontStyle=0;childLayout=stackLayout;horizontal=1;startSize=30;horizontalStack=0;resizeParent=1;resizeParentMax=0;resizeLast=0;collapsible=1;marginBottom=0;whiteSpace=wrap;html=1;" parent="1" vertex="1">
          <mxGeometry x="355" y="40" width="140" height="90" as="geometry">
            <mxRectangle x="355" y="40" width="60" height="30" as="alternateBounds" />
          </mxGeometry>
        </mxCell>
        <mxCell id="CPpi-T0CUva5ExN3Evoc-9" value="&lt;font style=&quot;font-size: 14px;&quot;&gt;&amp;lt;&amp;lt;PK&amp;gt;&amp;gt;číslo&amp;nbsp;&lt;br&gt;&lt;/font&gt;" style="text;strokeColor=none;fillColor=none;align=left;verticalAlign=middle;spacingLeft=4;spacingRight=4;overflow=hidden;points=[[0,0.5],[1,0.5]];portConstraint=eastwest;rotatable=0;whiteSpace=wrap;html=1;" parent="CPpi-T0CUva5ExN3Evoc-7" vertex="1">
          <mxGeometry y="30" width="140" height="30" as="geometry" />
        </mxCell>
        <mxCell id="Fumt1I7i6K-nKuNbreHp-10" value="&lt;font style=&quot;font-size: 14px;&quot;&gt;seznam zastávek&lt;/font&gt;" style="text;html=1;strokeColor=none;fillColor=none;align=left;verticalAlign=middle;whiteSpace=wrap;rounded=0;" vertex="1" parent="CPpi-T0CUva5ExN3Evoc-7">
          <mxGeometry y="60" width="140" height="30" as="geometry" />
        </mxCell>
        <mxCell id="CPpi-T0CUva5ExN3Evoc-11" value="&lt;font style=&quot;font-size: 18px;&quot;&gt;Spoj&lt;/font&gt;" style="swimlane;fontStyle=0;childLayout=stackLayout;horizontal=1;startSize=30;horizontalStack=0;resizeParent=1;resizeParentMax=0;resizeLast=0;collapsible=1;marginBottom=0;whiteSpace=wrap;html=1;" parent="1" vertex="1">
          <mxGeometry x="60" y="40" width="140" height="120" as="geometry" />
        </mxCell>
        <mxCell id="CPpi-T0CUva5ExN3Evoc-13" value="&lt;font style=&quot;font-size: 14px;&quot;&gt;&amp;lt;&amp;lt;PK&amp;gt;&amp;gt; číslo spoje&lt;/font&gt;" style="text;strokeColor=none;fillColor=none;align=left;verticalAlign=middle;spacingLeft=4;spacingRight=4;overflow=hidden;points=[[0,0.5],[1,0.5]];portConstraint=eastwest;rotatable=0;whiteSpace=wrap;html=1;" parent="CPpi-T0CUva5ExN3Evoc-11" vertex="1">
          <mxGeometry y="30" width="140" height="30" as="geometry" />
        </mxCell>
        <mxCell id="CPpi-T0CUva5ExN3Evoc-14" value="&lt;font style=&quot;font-size: 14px;&quot;&gt;&amp;lt;&amp;lt;PK&amp;gt;&amp;gt; číslo linky&lt;/font&gt;" style="text;strokeColor=none;fillColor=none;align=left;verticalAlign=middle;spacingLeft=4;spacingRight=4;overflow=hidden;points=[[0,0.5],[1,0.5]];portConstraint=eastwest;rotatable=0;whiteSpace=wrap;html=1;" parent="CPpi-T0CUva5ExN3Evoc-11" vertex="1">
          <mxGeometry y="60" width="140" height="30" as="geometry" />
        </mxCell>
        <mxCell id="J_cl9QAVBTpifiWZS7fb-6" value="&lt;font style=&quot;font-size: 14px;&quot;&gt;omezení jízdy&lt;/font&gt;" style="text;html=1;strokeColor=none;fillColor=none;align=center;verticalAlign=middle;whiteSpace=wrap;rounded=0;" parent="CPpi-T0CUva5ExN3Evoc-11" vertex="1">
          <mxGeometry y="90" width="140" height="30" as="geometry" />
        </mxCell>
        <mxCell id="CPpi-T0CUva5ExN3Evoc-19" value="&lt;font style=&quot;font-size: 18px;&quot;&gt;Pozice&lt;/font&gt;" style="swimlane;fontStyle=0;childLayout=stackLayout;horizontal=1;startSize=30;horizontalStack=0;resizeParent=1;resizeParentMax=0;resizeLast=0;collapsible=1;marginBottom=0;whiteSpace=wrap;html=1;" parent="1" vertex="1">
          <mxGeometry x="350" y="350" width="140" height="150" as="geometry" />
        </mxCell>
        <mxCell id="CPpi-T0CUva5ExN3Evoc-21" value="&lt;font style=&quot;font-size: 14px;&quot;&gt;Datum a čas&lt;/font&gt;" style="text;strokeColor=none;fillColor=none;align=left;verticalAlign=middle;spacingLeft=4;spacingRight=4;overflow=hidden;points=[[0,0.5],[1,0.5]];portConstraint=eastwest;rotatable=0;whiteSpace=wrap;html=1;" parent="CPpi-T0CUva5ExN3Evoc-19" vertex="1">
          <mxGeometry y="30" width="140" height="30" as="geometry" />
        </mxCell>
        <mxCell id="CPpi-T0CUva5ExN3Evoc-22" value="&lt;font style=&quot;font-size: 14px;&quot;&gt;zastávka&lt;/font&gt;" style="text;strokeColor=none;fillColor=none;align=left;verticalAlign=middle;spacingLeft=4;spacingRight=4;overflow=hidden;points=[[0,0.5],[1,0.5]];portConstraint=eastwest;rotatable=0;whiteSpace=wrap;html=1;" parent="CPpi-T0CUva5ExN3Evoc-19" vertex="1">
          <mxGeometry y="60" width="140" height="30" as="geometry" />
        </mxCell>
        <mxCell id="Fumt1I7i6K-nKuNbreHp-54" value="&lt;font style=&quot;font-size: 14px;&quot;&gt;spoj&lt;/font&gt;" style="text;html=1;strokeColor=none;fillColor=none;align=left;verticalAlign=middle;whiteSpace=wrap;rounded=0;" vertex="1" parent="CPpi-T0CUva5ExN3Evoc-19">
          <mxGeometry y="90" width="140" height="30" as="geometry" />
        </mxCell>
        <mxCell id="CPpi-T0CUva5ExN3Evoc-20" value="&lt;font style=&quot;font-size: 14px;&quot;&gt;pořadí vozu&lt;/font&gt;" style="text;strokeColor=none;fillColor=none;align=left;verticalAlign=middle;spacingLeft=4;spacingRight=4;overflow=hidden;points=[[0,0.5],[1,0.5]];portConstraint=eastwest;rotatable=0;whiteSpace=wrap;html=1;" parent="CPpi-T0CUva5ExN3Evoc-19" vertex="1">
          <mxGeometry y="120" width="140" height="30" as="geometry" />
        </mxCell>
        <mxCell id="J_cl9QAVBTpifiWZS7fb-2" value="&lt;span style=&quot;font-size: 18px;&quot;&gt;jízdní řád&lt;/span&gt;" style="swimlane;fontStyle=0;childLayout=stackLayout;horizontal=1;startSize=30;horizontalStack=0;resizeParent=1;resizeParentMax=0;resizeLast=0;collapsible=1;marginBottom=0;whiteSpace=wrap;html=1;" parent="1" vertex="1">
          <mxGeometry x="630" y="350" width="165" height="90" as="geometry" />
        </mxCell>
        <mxCell id="J_cl9QAVBTpifiWZS7fb-3" value="&lt;font style=&quot;font-size: 14px;&quot;&gt;čas příjezdu&lt;/font&gt;" style="text;strokeColor=none;fillColor=none;align=left;verticalAlign=middle;spacingLeft=4;spacingRight=4;overflow=hidden;points=[[0,0.5],[1,0.5]];portConstraint=eastwest;rotatable=0;whiteSpace=wrap;html=1;" parent="J_cl9QAVBTpifiWZS7fb-2" vertex="1">
          <mxGeometry y="30" width="165" height="30" as="geometry" />
        </mxCell>
        <mxCell id="J_cl9QAVBTpifiWZS7fb-5" value="&lt;font style=&quot;font-size: 14px;&quot;&gt;nástupiště na zastávce&lt;br&gt;&lt;/font&gt;" style="text;strokeColor=none;fillColor=none;align=left;verticalAlign=middle;spacingLeft=4;spacingRight=4;overflow=hidden;points=[[0,0.5],[1,0.5]];portConstraint=eastwest;rotatable=0;whiteSpace=wrap;html=1;" parent="J_cl9QAVBTpifiWZS7fb-2" vertex="1">
          <mxGeometry y="60" width="165" height="30" as="geometry" />
        </mxCell>
        <mxCell id="Fumt1I7i6K-nKuNbreHp-8" style="edgeStyle=orthogonalEdgeStyle;rounded=0;orthogonalLoop=1;jettySize=auto;html=1;exitX=0;exitY=0.5;exitDx=0;exitDy=0;" edge="1" parent="1" source="CPpi-T0CUva5ExN3Evoc-9" target="CPpi-T0CUva5ExN3Evoc-13">
          <mxGeometry relative="1" as="geometry" />
        </mxCell>
        <mxCell id="Fumt1I7i6K-nKuNbreHp-11" value="n" style="text;html=1;strokeColor=none;fillColor=none;align=center;verticalAlign=middle;whiteSpace=wrap;rounded=0;" vertex="1" parent="1">
          <mxGeometry x="330" y="70" width="25" height="10" as="geometry" />
        </mxCell>
        <mxCell id="Fumt1I7i6K-nKuNbreHp-12" value="1...n" style="text;html=1;strokeColor=none;fillColor=none;align=center;verticalAlign=middle;whiteSpace=wrap;rounded=0;" vertex="1" parent="1">
          <mxGeometry x="200" y="65" width="30" height="10" as="geometry" />
        </mxCell>
        <mxCell id="Fumt1I7i6K-nKuNbreHp-13" value="zahrnuje" style="text;html=1;strokeColor=none;fillColor=none;align=center;verticalAlign=middle;whiteSpace=wrap;rounded=0;" vertex="1" parent="1">
          <mxGeometry x="250" y="60" width="60" height="20" as="geometry" />
        </mxCell>
        <mxCell id="Fumt1I7i6K-nKuNbreHp-14" style="edgeStyle=orthogonalEdgeStyle;rounded=0;orthogonalLoop=1;jettySize=auto;html=1;entryX=0;entryY=0.5;entryDx=0;entryDy=0;" edge="1" parent="1" source="CPpi-T0CUva5ExN3Evoc-9" target="J_cl9QAVBTpifiWZS7fb-1">
          <mxGeometry relative="1" as="geometry" />
        </mxCell>
        <mxCell id="Fumt1I7i6K-nKuNbreHp-15" value="n" style="text;html=1;strokeColor=none;fillColor=none;align=center;verticalAlign=middle;whiteSpace=wrap;rounded=0;" vertex="1" parent="1">
          <mxGeometry x="500" y="70" width="20" height="10" as="geometry" />
        </mxCell>
        <mxCell id="Fumt1I7i6K-nKuNbreHp-16" value="1...n" style="text;html=1;strokeColor=none;fillColor=none;align=center;verticalAlign=middle;whiteSpace=wrap;rounded=0;" vertex="1" parent="1">
          <mxGeometry x="600" y="70" width="30" as="geometry" />
        </mxCell>
        <mxCell id="Fumt1I7i6K-nKuNbreHp-18" style="edgeStyle=orthogonalEdgeStyle;rounded=0;orthogonalLoop=1;jettySize=auto;html=1;entryX=0.452;entryY=0.984;entryDx=0;entryDy=0;entryPerimeter=0;" edge="1" parent="1" source="J_cl9QAVBTpifiWZS7fb-2" target="CPpi-T0CUva5ExN3Evoc-6">
          <mxGeometry relative="1" as="geometry">
            <Array as="points">
              <mxPoint x="693" y="290" />
              <mxPoint x="693" y="290" />
            </Array>
          </mxGeometry>
        </mxCell>
        <mxCell id="Fumt1I7i6K-nKuNbreHp-21" value="" style="endArrow=classic;html=1;rounded=0;entryX=1;entryY=1;entryDx=0;entryDy=0;exitX=0;exitY=0;exitDx=0;exitDy=0;" edge="1" parent="1" source="J_cl9QAVBTpifiWZS7fb-2" target="J_cl9QAVBTpifiWZS7fb-6">
          <mxGeometry width="50" height="50" relative="1" as="geometry">
            <mxPoint x="600" y="330" as="sourcePoint" />
            <mxPoint x="480" y="190" as="targetPoint" />
          </mxGeometry>
        </mxCell>
        <mxCell id="Fumt1I7i6K-nKuNbreHp-22" value="1...n" style="text;html=1;strokeColor=none;fillColor=none;align=center;verticalAlign=middle;whiteSpace=wrap;rounded=0;rotation=20;" vertex="1" parent="1">
          <mxGeometry x="210" y="150" width="30" height="10" as="geometry" />
        </mxCell>
        <mxCell id="Fumt1I7i6K-nKuNbreHp-24" value="1" style="text;html=1;strokeColor=none;fillColor=none;align=center;verticalAlign=middle;whiteSpace=wrap;rounded=0;" vertex="1" parent="1">
          <mxGeometry x="700" y="330" width="10" height="10" as="geometry" />
        </mxCell>
        <mxCell id="Fumt1I7i6K-nKuNbreHp-26" value="vytvořena z" style="text;html=1;strokeColor=none;fillColor=none;align=center;verticalAlign=middle;whiteSpace=wrap;rounded=0;" vertex="1" parent="1">
          <mxGeometry x="520" y="60" width="70" height="20" as="geometry" />
        </mxCell>
        <mxCell id="Fumt1I7i6K-nKuNbreHp-29" value="obsluhována" style="text;html=1;strokeColor=none;fillColor=none;align=center;verticalAlign=middle;whiteSpace=wrap;rounded=0;rotation=-50;" vertex="1" parent="1">
          <mxGeometry x="160" y="260" width="80" height="30" as="geometry" />
        </mxCell>
        <mxCell id="Fumt1I7i6K-nKuNbreHp-30" value="1" style="text;html=1;strokeColor=none;fillColor=none;align=center;verticalAlign=middle;whiteSpace=wrap;rounded=0;" vertex="1" parent="1">
          <mxGeometry x="355" y="140" width="30" height="10" as="geometry" />
        </mxCell>
        <mxCell id="Fumt1I7i6K-nKuNbreHp-31" value="1...n" style="text;html=1;strokeColor=none;fillColor=none;align=center;verticalAlign=middle;whiteSpace=wrap;rounded=0;" vertex="1" parent="1">
          <mxGeometry x="210" y="300" width="30" height="10" as="geometry" />
        </mxCell>
        <mxCell id="Fumt1I7i6K-nKuNbreHp-35" value="1...n" style="text;html=1;strokeColor=none;fillColor=none;align=center;verticalAlign=middle;whiteSpace=wrap;rounded=0;" vertex="1" parent="1">
          <mxGeometry x="700" y="170" width="50" height="10" as="geometry" />
        </mxCell>
        <mxCell id="Fumt1I7i6K-nKuNbreHp-37" value="" style="endArrow=classic;html=1;rounded=0;exitX=0;exitY=1;exitDx=0;exitDy=0;" edge="1" parent="1" source="Fumt1I7i6K-nKuNbreHp-10">
          <mxGeometry width="50" height="50" relative="1" as="geometry">
            <mxPoint x="420" y="250" as="sourcePoint" />
            <mxPoint x="190" y="320" as="targetPoint" />
          </mxGeometry>
        </mxCell>
        <mxCell id="Fumt1I7i6K-nKuNbreHp-39" style="edgeStyle=orthogonalEdgeStyle;rounded=0;orthogonalLoop=1;jettySize=auto;html=1;entryX=0.461;entryY=1.025;entryDx=0;entryDy=0;entryPerimeter=0;" edge="1" parent="1" source="CPpi-T0CUva5ExN3Evoc-19" target="Fumt1I7i6K-nKuNbreHp-10">
          <mxGeometry relative="1" as="geometry" />
        </mxCell>
        <mxCell id="Fumt1I7i6K-nKuNbreHp-40" value="" style="endArrow=classic;html=1;rounded=0;entryX=0.214;entryY=1;entryDx=0;entryDy=0;entryPerimeter=0;" edge="1" parent="1" target="J_cl9QAVBTpifiWZS7fb-6">
          <mxGeometry width="50" height="50" relative="1" as="geometry">
            <mxPoint x="90" y="320" as="sourcePoint" />
            <mxPoint x="470" y="200" as="targetPoint" />
          </mxGeometry>
        </mxCell>
        <mxCell id="Fumt1I7i6K-nKuNbreHp-41" value="1...n" style="text;html=1;strokeColor=none;fillColor=none;align=center;verticalAlign=middle;whiteSpace=wrap;rounded=0;" vertex="1" parent="1">
          <mxGeometry x="40" y="300" width="40" height="10" as="geometry" />
        </mxCell>
        <mxCell id="Fumt1I7i6K-nKuNbreHp-42" value="obslouží" style="text;html=1;strokeColor=none;fillColor=none;align=center;verticalAlign=middle;whiteSpace=wrap;rounded=0;" vertex="1" parent="1">
          <mxGeometry x="30" y="220" width="60" height="30" as="geometry" />
        </mxCell>
        <mxCell id="Fumt1I7i6K-nKuNbreHp-43" value="1...n" style="text;html=1;strokeColor=none;fillColor=none;align=center;verticalAlign=middle;whiteSpace=wrap;rounded=0;" vertex="1" parent="1">
          <mxGeometry x="30" y="170" width="40" height="10" as="geometry" />
        </mxCell>
        <mxCell id="Fumt1I7i6K-nKuNbreHp-44" value="&lt;font style=&quot;font-size: 18px;&quot;&gt;nasazení vozu&lt;/font&gt;" style="swimlane;fontStyle=0;childLayout=stackLayout;horizontal=1;startSize=30;horizontalStack=0;resizeParent=1;resizeParentMax=0;resizeLast=0;collapsible=1;marginBottom=0;whiteSpace=wrap;html=1;" vertex="1" parent="1">
          <mxGeometry x="70" y="320" width="140" height="180" as="geometry" />
        </mxCell>
        <mxCell id="Fumt1I7i6K-nKuNbreHp-45" value="&amp;lt;&amp;lt;PK&amp;gt;&amp;gt;kmenová linka" style="text;strokeColor=none;fillColor=none;align=left;verticalAlign=middle;spacingLeft=4;spacingRight=4;overflow=hidden;points=[[0,0.5],[1,0.5]];portConstraint=eastwest;rotatable=0;whiteSpace=wrap;html=1;" vertex="1" parent="Fumt1I7i6K-nKuNbreHp-44">
          <mxGeometry y="30" width="140" height="30" as="geometry" />
        </mxCell>
        <mxCell id="Fumt1I7i6K-nKuNbreHp-46" value="&amp;lt;&amp;lt;PK&amp;gt;&amp;gt; pořadové číslo" style="text;strokeColor=none;fillColor=none;align=left;verticalAlign=middle;spacingLeft=4;spacingRight=4;overflow=hidden;points=[[0,0.5],[1,0.5]];portConstraint=eastwest;rotatable=0;whiteSpace=wrap;html=1;" vertex="1" parent="Fumt1I7i6K-nKuNbreHp-44">
          <mxGeometry y="60" width="140" height="30" as="geometry" />
        </mxCell>
        <mxCell id="Fumt1I7i6K-nKuNbreHp-47" value="čas výjezdu z vozovny" style="text;strokeColor=none;fillColor=none;align=left;verticalAlign=middle;spacingLeft=4;spacingRight=4;overflow=hidden;points=[[0,0.5],[1,0.5]];portConstraint=eastwest;rotatable=0;whiteSpace=wrap;html=1;" vertex="1" parent="Fumt1I7i6K-nKuNbreHp-44">
          <mxGeometry y="90" width="140" height="30" as="geometry" />
        </mxCell>
        <mxCell id="Fumt1I7i6K-nKuNbreHp-48" value="čas příjezdu do vozony" style="text;html=1;strokeColor=none;fillColor=none;align=center;verticalAlign=middle;whiteSpace=wrap;rounded=0;" vertex="1" parent="Fumt1I7i6K-nKuNbreHp-44">
          <mxGeometry y="120" width="140" height="30" as="geometry" />
        </mxCell>
        <mxCell id="Fumt1I7i6K-nKuNbreHp-49" value="stav vozu" style="text;html=1;strokeColor=none;fillColor=none;align=center;verticalAlign=middle;whiteSpace=wrap;rounded=0;" vertex="1" parent="Fumt1I7i6K-nKuNbreHp-44">
          <mxGeometry y="150" width="140" height="30" as="geometry" />
        </mxCell>
        <mxCell id="Fumt1I7i6K-nKuNbreHp-52" value="&amp;lt;&amp;lt;weak&amp;gt;&amp;gt;" style="text;html=1;strokeColor=none;fillColor=none;align=center;verticalAlign=middle;whiteSpace=wrap;rounded=0;rotation=-90;" vertex="1" parent="1">
          <mxGeometry x="80" y="220" width="60" height="30" as="geometry" />
        </mxCell>
        <mxCell id="Fumt1I7i6K-nKuNbreHp-53" value="1" style="text;html=1;strokeColor=none;fillColor=none;align=center;verticalAlign=middle;whiteSpace=wrap;rounded=0;" vertex="1" parent="1">
          <mxGeometry x="420" y="320" width="60" height="30" as="geometry" />
        </mxCell>
        <mxCell id="Fumt1I7i6K-nKuNbreHp-55" value="stanovený pro" style="text;html=1;strokeColor=none;fillColor=none;align=center;verticalAlign=middle;whiteSpace=wrap;rounded=0;" vertex="1" parent="1">
          <mxGeometry x="700" y="240" width="90" height="30" as="geometry" />
        </mxCell>
        <mxCell id="Fumt1I7i6K-nKuNbreHp-56" value="1" style="text;html=1;strokeColor=none;fillColor=none;align=center;verticalAlign=middle;whiteSpace=wrap;rounded=0;" vertex="1" parent="1">
          <mxGeometry x="430" y="140" width="20" height="10" as="geometry" />
        </mxCell>
        <mxCell id="Fumt1I7i6K-nKuNbreHp-57" value="stanovený pro" style="text;html=1;strokeColor=none;fillColor=none;align=center;verticalAlign=middle;whiteSpace=wrap;rounded=0;rotation=25;" vertex="1" parent="1">
          <mxGeometry x="490" y="270" width="100" height="30" as="geometry" />
        </mxCell>
        <mxCell id="Fumt1I7i6K-nKuNbreHp-58" value="určena" style="text;html=1;strokeColor=none;fillColor=none;align=center;verticalAlign=middle;whiteSpace=wrap;rounded=0;rotation=-91;" vertex="1" parent="1">
          <mxGeometry x="370" y="280" width="60" height="30" as="geometry" />
        </mxCell>
        <mxCell id="Fumt1I7i6K-nKuNbreHp-60" value="1" style="text;html=1;strokeColor=none;fillColor=none;align=center;verticalAlign=middle;whiteSpace=wrap;rounded=0;" vertex="1" parent="1">
          <mxGeometry x="620" y="330" width="20" height="10" as="geometry" />
        </mxCell>
      </root>
    </mxGraphModel>
  </diagram>
</mxfile>
